<svg width="114" height="22" viewBox="0 0 114 22" fill="none" xmlns="http://www.w3.org/2000/svg">
<path d="M15.124 10.531H19.416V18.767C18.314 19.5983 17.038 20.2363 15.588 20.681C14.138 21.1257 12.6783 21.348 11.209 21.348C9.10167 21.348 7.207 20.9033 5.525 20.014C3.843 19.1053 2.51867 17.8583 1.552 16.273C0.604667 14.6683 0.131 12.8607 0.131 10.85C0.131 8.83933 0.604667 7.04133 1.552 5.456C2.51867 3.85133 3.85267 2.60433 5.554 1.715C7.25533 0.806333 9.16933 0.352 11.296 0.352C13.0747 0.352 14.689 0.651666 16.139 1.251C17.589 1.85033 18.807 2.72033 19.793 3.861L16.777 6.645C15.327 5.11767 13.5773 4.354 11.528 4.354C10.2327 4.354 9.08233 4.62467 8.077 5.166C7.07167 5.70733 6.28867 6.471 5.728 7.457C5.16733 8.443 4.887 9.574 4.887 10.85C4.887 12.1067 5.16733 13.228 5.728 14.214C6.28867 15.2 7.062 15.9733 8.048 16.534C9.05333 17.0753 10.194 17.346 11.47 17.346C12.8233 17.346 14.0413 17.056 15.124 16.476V10.531ZM30.885 21.232C29.2417 21.232 27.7627 20.8937 26.448 20.217C25.1527 19.521 24.1377 18.564 23.403 17.346C22.6684 16.128 22.301 14.7457 22.301 13.199C22.301 11.6523 22.6684 10.27 23.403 9.052C24.1377 7.834 25.1527 6.88667 26.448 6.21C27.7627 5.514 29.2417 5.166 30.885 5.166C32.5284 5.166 33.9977 5.514 35.293 6.21C36.5884 6.88667 37.6034 7.834 38.338 9.052C39.0727 10.27 39.44 11.6523 39.44 13.199C39.44 14.7457 39.0727 16.128 38.338 17.346C37.6034 18.564 36.5884 19.521 35.293 20.217C33.9977 20.8937 32.5284 21.232 30.885 21.232ZM30.885 17.52C32.045 17.52 32.9924 17.1333 33.727 16.36C34.481 15.5673 34.858 14.5137 34.858 13.199C34.858 11.8843 34.481 10.8403 33.727 10.067C32.9924 9.27433 32.045 8.878 30.885 8.878C29.725 8.878 28.768 9.27433 28.014 10.067C27.26 10.8403 26.883 11.8843 26.883 13.199C26.883 14.5137 27.26 15.5673 28.014 16.36C28.768 17.1333 29.725 17.52 30.885 17.52ZM52.527 20.246C52.0823 20.5747 51.5313 20.826 50.874 21C50.236 21.1547 49.5593 21.232 48.844 21.232C46.988 21.232 45.5476 20.7583 44.523 19.811C43.5176 18.8637 43.015 17.4717 43.015 15.635V9.226H40.608V5.746H43.015V1.947H47.539V5.746H51.425V9.226H47.539V15.577C47.539 16.2343 47.7033 16.7467 48.032 17.114C48.38 17.462 48.8633 17.636 49.482 17.636C50.1973 17.636 50.8063 17.4427 51.309 17.056L52.527 20.246Z" fill="#2C434F"/>
<path d="M65.1005 21.174C63.0898 21.174 61.2725 20.7293 59.6485 19.84C58.0438 18.9507 56.7775 17.723 55.8495 16.157C54.9408 14.5717 54.4865 12.8027 54.4865 10.85C54.4865 8.89733 54.9408 7.138 55.8495 5.572C56.7775 3.98667 58.0535 2.74933 59.6775 1.86C61.3015 0.970666 63.1188 0.525999 65.1295 0.525999C66.6375 0.525999 68.0295 0.777333 69.3055 1.28C70.5815 1.78267 71.6642 2.51733 72.5535 3.484L71.1905 4.847C69.6052 3.24233 67.6042 2.44 65.1875 2.44C63.5828 2.44 62.1232 2.80733 60.8085 3.542C59.4938 4.27667 58.4595 5.282 57.7055 6.558C56.9708 7.834 56.6035 9.26467 56.6035 10.85C56.6035 12.4353 56.9708 13.866 57.7055 15.142C58.4595 16.418 59.4938 17.4233 60.8085 18.158C62.1232 18.8927 63.5828 19.26 65.1875 19.26C67.6235 19.26 69.6245 18.448 71.1905 16.824L72.5535 18.187C71.6642 19.1537 70.5718 19.898 69.2765 20.42C68.0005 20.9227 66.6085 21.174 65.1005 21.174ZM89.3495 15.577H78.0395L75.6035 21H73.3705L82.6505 0.699999H84.7675L94.0475 21H91.7855L89.3495 15.577ZM88.5665 13.837L83.6945 2.933L78.8225 13.837H88.5665ZM111.268 21L106.628 14.475C106.106 14.533 105.564 14.562 105.004 14.562H99.5516V21H97.4056V0.699999H105.004C107.594 0.699999 109.624 1.31867 111.094 2.556C112.563 3.79333 113.298 5.49467 113.298 7.66C113.298 9.24533 112.892 10.589 112.08 11.691C111.287 12.7737 110.146 13.5567 108.658 14.04L113.617 21H111.268ZM104.946 12.735C106.956 12.735 108.493 12.2903 109.557 11.401C110.62 10.5117 111.152 9.26467 111.152 7.66C111.152 6.01667 110.62 4.76 109.557 3.89C108.493 3.00067 106.956 2.556 104.946 2.556H99.5516V12.735H104.946Z" fill="#21C4C8"/>
</svg>
